<svg xmlns="http://www.w3.org/2000/svg" width="324.22" height="325.889" viewBox="0 0 324.22 325.889">
    <defs>
        <clipPath id="clip-path">
            <path id="Path_1227" data-name="Path 1227" d="M0 184.778h324.22v-325.889H0z" transform="translate(0 141.111)" style="fill:none"/>
        </clipPath>
        <style>
            .cls-4{fill:#42454a}
        </style>
    </defs>
    <g id="Group_238" data-name="Group 238" transform="translate(0 141.111)" style="opacity:.3">
        <g id="Group_237" data-name="Group 237" transform="translate(0 -141.111)" style="clip-path:url(#clip-path)">
            <g id="Group_212" data-name="Group 212" transform="translate(21.632 101.388)">
                <path id="Path_1202" data-name="Path 1202" class="cls-4" d="M1.639 3.279A2.891 2.891 0 1 0-1.252.387a2.891 2.891 0 0 0 2.891 2.892" transform="translate(1.252 2.504)"/>
            </g>
            <g id="Group_213" data-name="Group 213" transform="translate(21.632 32.68)">
                <path id="Path_1203" data-name="Path 1203" class="cls-4" d="M1.639 3.279A2.891 2.891 0 1 0-1.252.387a2.891 2.891 0 0 0 2.891 2.892" transform="translate(1.252 2.504)"/>
            </g>
            <g id="Group_214" data-name="Group 214" transform="translate(89.872 101.388)">
                <path id="Path_1204" data-name="Path 1204" class="cls-4" d="M1.639 3.279A2.891 2.891 0 1 0-1.252.387a2.891 2.891 0 0 0 2.891 2.892" transform="translate(1.252 2.504)"/>
            </g>
            <g id="Group_215" data-name="Group 215" transform="translate(89.872 32.68)">
                <path id="Path_1205" data-name="Path 1205" class="cls-4" d="M1.639 3.279A2.891 2.891 0 1 0-1.252.387a2.891 2.891 0 0 0 2.891 2.892" transform="translate(1.252 2.504)"/>
            </g>
            <g id="Group_216" data-name="Group 216" transform="translate(158.112 101.388)">
                <path id="Path_1206" data-name="Path 1206" class="cls-4" d="M1.639 3.279A2.891 2.891 0 1 0-1.252.387a2.891 2.891 0 0 0 2.891 2.892" transform="translate(1.252 2.504)"/>
            </g>
            <g id="Group_217" data-name="Group 217" transform="translate(158.112 32.68)">
                <path id="Path_1207" data-name="Path 1207" class="cls-4" d="M1.639 3.279A2.891 2.891 0 1 0-1.252.387a2.891 2.891 0 0 0 2.891 2.892" transform="translate(1.252 2.504)"/>
            </g>
            <g id="Group_218" data-name="Group 218" transform="translate(226.352 101.388)">
                <path id="Path_1208" data-name="Path 1208" class="cls-4" d="M1.639 3.279A2.891 2.891 0 1 0-1.252.387a2.891 2.891 0 0 0 2.891 2.892" transform="translate(1.252 2.504)"/>
            </g>
            <g id="Group_219" data-name="Group 219" transform="translate(226.352 32.68)">
                <path id="Path_1209" data-name="Path 1209" class="cls-4" d="M1.639 3.279A2.891 2.891 0 1 0-1.252.387a2.891 2.891 0 0 0 2.891 2.892" transform="translate(1.252 2.504)"/>
            </g>
            <g id="Group_220" data-name="Group 220" transform="translate(294.592 101.388)">
                <path id="Path_1210" data-name="Path 1210" class="cls-4" d="M1.639 3.279A2.891 2.891 0 1 0-1.252.387a2.891 2.891 0 0 0 2.891 2.892" transform="translate(1.252 2.504)"/>
            </g>
            <g id="Group_239" data-name="Group 239" transform="translate(362.832 101.388)">
                <path id="Path_1210-2" data-name="Path 1210" class="cls-4" d="M1.639 3.279A2.891 2.891 0 1 0-1.252.387a2.891 2.891 0 0 0 2.891 2.892" transform="translate(1.252 2.504)"/>
            </g>
            <g id="Group_242" data-name="Group 242" transform="translate(362.832 32.667)">
                <path id="Path_1210-3" data-name="Path 1210" class="cls-4" d="M1.639 3.279A2.891 2.891 0 1 0-1.252.387a2.891 2.891 0 0 0 2.891 2.892" transform="translate(1.252 2.504)"/>
            </g>
            <g id="Group_221" data-name="Group 221" transform="translate(294.592 32.68)">
                <path id="Path_1211" data-name="Path 1211" class="cls-4" d="M1.639 3.279A2.891 2.891 0 1 0-1.252.387a2.891 2.891 0 0 0 2.891 2.892" transform="translate(1.252 2.504)"/>
            </g>
            <g id="Group_222" data-name="Group 222" transform="translate(21.633 238.804)">
                <path id="Path_1212" data-name="Path 1212" class="cls-4" d="M0 1.639a2.891 2.891 0 1 0 2.891-2.891A2.891 2.891 0 0 0 0 1.639" transform="translate(0 1.252)"/>
            </g>
            <g id="Group_223" data-name="Group 223" transform="translate(89.873 238.804)">
                <path id="Path_1213" data-name="Path 1213" class="cls-4" d="M0 1.639a2.891 2.891 0 1 0 2.891-2.891A2.891 2.891 0 0 0 0 1.639" transform="translate(0 1.252)"/>
            </g>
            <g id="Group_224" data-name="Group 224" transform="translate(158.113 238.804)">
                <path id="Path_1214" data-name="Path 1214" class="cls-4" d="M0 1.639a2.891 2.891 0 1 0 2.891-2.891A2.891 2.891 0 0 0 0 1.639" transform="translate(0 1.252)"/>
            </g>
            <g id="Group_225" data-name="Group 225" transform="translate(226.353 238.804)">
                <path id="Path_1215" data-name="Path 1215" class="cls-4" d="M0 1.639a2.891 2.891 0 1 0 2.891-2.891A2.891 2.891 0 0 0 0 1.639" transform="translate(0 1.252)"/>
            </g>
            <g id="Group_226" data-name="Group 226" transform="translate(294.593 238.804)">
                <path id="Path_1216" data-name="Path 1216" class="cls-4" d="M0 1.639a2.891 2.891 0 1 0 2.891-2.891A2.891 2.891 0 0 0 0 1.639" transform="translate(0 1.252)"/>
            </g>
            <g id="Group_240" data-name="Group 240" transform="translate(362.833 238.804)">
                <path id="Path_1216-2" data-name="Path 1216" class="cls-4" d="M0 1.639a2.891 2.891 0 1 0 2.891-2.891A2.891 2.891 0 0 0 0 1.639" transform="translate(0 1.252)"/>
            </g>
            <g id="Group_227" data-name="Group 227" transform="translate(21.633 307.512)">
                <path id="Path_1217" data-name="Path 1217" class="cls-4" d="M0 1.639a2.891 2.891 0 1 0 2.891-2.891A2.891 2.891 0 0 0 0 1.639" transform="translate(0 1.252)"/>
            </g>
            <g id="Group_228" data-name="Group 228" transform="translate(89.873 307.512)">
                <path id="Path_1218" data-name="Path 1218" class="cls-4" d="M0 1.639a2.891 2.891 0 1 0 2.891-2.891A2.891 2.891 0 0 0 0 1.639" transform="translate(0 1.252)"/>
            </g>
            <g id="Group_229" data-name="Group 229" transform="translate(158.113 307.512)">
                <path id="Path_1219" data-name="Path 1219" class="cls-4" d="M0 1.639a2.891 2.891 0 1 0 2.891-2.891A2.891 2.891 0 0 0 0 1.639" transform="translate(0 1.252)"/>
            </g>
            <g id="Group_230" data-name="Group 230" transform="translate(226.353 307.512)">
                <path id="Path_1220" data-name="Path 1220" class="cls-4" d="M0 1.639a2.891 2.891 0 1 0 2.891-2.891A2.891 2.891 0 0 0 0 1.639" transform="translate(0 1.252)"/>
            </g>
            <g id="Group_231" data-name="Group 231" transform="translate(294.593 307.512)">
                <path id="Path_1221" data-name="Path 1221" class="cls-4" d="M0 1.639a2.891 2.891 0 1 0 2.891-2.891A2.891 2.891 0 0 0 0 1.639" transform="translate(0 1.252)"/>
            </g>
            <g id="Group_241" data-name="Group 241" transform="translate(362.833 307.512)">
                <path id="Path_1221-2" data-name="Path 1221" class="cls-4" d="M0 1.639a2.891 2.891 0 1 0 2.891-2.891A2.891 2.891 0 0 0 0 1.639" transform="translate(0 1.252)"/>
            </g>
            <g id="Group_232" data-name="Group 232" transform="translate(21.633 170.084)">
                <path id="Path_1222" data-name="Path 1222" class="cls-4" d="M0 1.639a2.891 2.891 0 1 0 2.891-2.891A2.891 2.891 0 0 0 0 1.639" transform="translate(0 1.252)"/>
            </g>
            <g id="Group_233" data-name="Group 233" transform="translate(89.873 170.084)">
                <path id="Path_1223" data-name="Path 1223" class="cls-4" d="M0 1.639a2.891 2.891 0 1 0 2.891-2.891A2.891 2.891 0 0 0 0 1.639" transform="translate(0 1.252)"/>
            </g>
            <g id="Group_234" data-name="Group 234" transform="translate(158.113 170.084)">
                <path id="Path_1224" data-name="Path 1224" class="cls-4" d="M0 1.639a2.891 2.891 0 1 0 2.891-2.891A2.891 2.891 0 0 0 0 1.639" transform="translate(0 1.252)"/>
            </g>
            <g id="Group_235" data-name="Group 235" transform="translate(226.353 170.084)">
                <path id="Path_1225" data-name="Path 1225" class="cls-4" d="M0 1.639a2.891 2.891 0 1 0 2.891-2.891A2.891 2.891 0 0 0 0 1.639" transform="translate(0 1.252)"/>
            </g>
            <g id="Group_236" data-name="Group 236" transform="translate(294.593 170.084)">
                <path id="Path_1226" data-name="Path 1226" class="cls-4" d="M0 1.639a2.891 2.891 0 1 0 2.891-2.891A2.891 2.891 0 0 0 0 1.639" transform="translate(0 1.252)"/>
                <path id="Path_1228" data-name="Path 1228" class="cls-4" d="M0 1.639a2.891 2.891 0 1 0 2.891-2.891A2.891 2.891 0 0 0 0 1.639" transform="translate(68.24 1.252)"/>
            </g>
        </g>
    </g>
</svg>
