<svg id="Group_250" data-name="Group 250" xmlns="http://www.w3.org/2000/svg" width="61.874" height="61.874" viewBox="0 0 61.874 61.874">
    <defs>
        <clipPath id="clip-path">
            <path id="Rectangle_9" data-name="Rectangle 9" style="fill:none" d="M0 0h61.874v61.874H0z"/>
        </clipPath>
        <filter id="Path_9" x="-3.441" y="4.275" width="68.756" height="57.47" filterUnits="userSpaceOnUse">
            <feOffset dy="3"/>
            <feGaussianBlur stdDeviation="3" result="blur"/>
            <feFlood flood-opacity=".161"/>
            <feComposite operator="in" in2="blur"/>
            <feComposite in="SourceGraphic"/>
        </filter>
        <style>
            .cls-3{fill:#333}
        </style>
    </defs>
    <g id="Group_23" data-name="Group 23" style="clip-path:url(#clip-path)">
        <path id="Path_7" data-name="Path 7" class="cls-3" d="M61.874 24.136 34.216 47.089a5.135 5.135 0 0 1-6.559 0L0 24.136 27.658 1.183a5.135 5.135 0 0 1 6.559 0z"/>
        <g style="filter:url(#Path_9)">
            <path id="Path_9-2" data-name="Path 9" d="M59.508 35.961v-17.37a2.416 2.416 0 0 0-2.417-2.416H11.169a2.416 2.416 0 0 0-2.417 2.416v17.37l22.284 18.564a4.834 4.834 0 0 0 6.188 0z" transform="translate(-3.19 -5.9)" style="fill:#fff"/>
        </g>
        <path id="Path_10" data-name="Path 10" class="cls-3" d="M41.921 25.751a11.555 11.555 0 1 0 8.157 3.384 11.54 11.54 0 0 0-8.157-3.384m5.936 9.728L41.3 42.031a1.633 1.633 0 0 1-.535.358 1.646 1.646 0 0 1-1.8-.358l-2.983-2.977a1.651 1.651 0 1 1 2.338-2.332l1.814 1.814 5.381-5.387a1.651 1.651 0 1 1 2.339 2.33" transform="translate(-11.082 -9.394)"/>
        <path id="Path_11" data-name="Path 11" d="M61.874 38 34.216 60.95a5.135 5.135 0 0 1-6.559 0L0 38v32.6a5.135 5.135 0 0 0 5.135 5.135h51.6a5.135 5.135 0 0 0 5.139-5.135z" transform="translate(0 -13.861)" style="fill:#666"/>
    </g>
</svg>
