<svg xmlns="http://www.w3.org/2000/svg" width="63.562" height="44.223" viewBox="0 0 63.562 44.223">
    <g data-name="Group 254">
        <path data-name="Path 1" d="M330.125 70.026a8.856 8.856 0 0 1 10.465 8.712v16.581a8.86 8.86 0 1 1-17.719 0V78.738a8.86 8.86 0 0 1 7.254-8.712" transform="translate(-277.028 -59.956)" style="fill:#666"/>
        <path data-name="Path 2" d="M29.885 4.217a18.2 18.2 0 0 1 23.671.974 14.085 14.085 0 0 0-12.888 12.662c-.03.307-.026.617-.025.926v16.584a8.981 8.981 0 0 1-.047.913 8.86 8.86 0 0 1-17.673-.913V18.54a18.19 18.19 0 0 1 6.962-14.323"/>
        <path data-name="Path 3" d="M18.228 0a18.17 18.17 0 0 1 7.107 1.438 18.2 18.2 0 0 0-7.615 14.815v19.11a8.86 8.86 0 0 1-17.72 0V18.228A18.228 18.228 0 0 1 18.228 0"/>
    </g>
</svg>
