<svg xmlns="http://www.w3.org/2000/svg" width="70.961" height="70.487" viewBox="0 0 70.961 70.487">
    <defs>
        <clipPath id="clip-path">
            <path id="Rectangle_18" data-name="Rectangle 18" class="cls-1" transform="translate(-4 -4.306)" d="M0 0h70.961v70.487H0z"/>
        </clipPath>
        <style>
            .cls-1{fill:#666}.cls-3{fill:#f2f2f2}
        </style>
    </defs>
    <g id="Group_249" data-name="Group 249" transform="translate(4 4.306)">
        <g id="Group_25" data-name="Group 25" style="clip-path:url(#clip-path)">
            <path id="Path_13" data-name="Path 13" class="cls-1" d="m235.943 1.858-3-1.731a.945.945 0 0 0-.946 0l-3 1.731a.946.946 0 0 0-.473.819v3.462a.946.946 0 0 0 .473.819l3 1.731a.946.946 0 0 0 .946 0l3-1.731a.946.946 0 0 0 .473-.819V2.677a.946.946 0 0 0-.473-.819m-1.3 3.5a.52.52 0 0 1-.26.45l-1.649.952a.52.52 0 0 1-.52 0l-1.649-.952a.52.52 0 0 1-.26-.45v-1.9a.52.52 0 0 1 .26-.451l1.649-.952a.52.52 0 0 1 .52 0l1.649.952a.521.521 0 0 1 .26.451z" transform="translate(-200.991 -4.306)"/>
            <path id="Rectangle_10" data-name="Rectangle 10" class="cls-1" transform="translate(30.406 7.826)" d="M0 0h2.149v3.873H0z"/>
            <path id="Path_14" data-name="Path 14" class="cls-1" d="m229 447.294 3 1.731a.945.945 0 0 0 .946 0l3-1.731a.946.946 0 0 0 .473-.819v-3.462a.946.946 0 0 0-.473-.819l-3-1.731a.946.946 0 0 0-.946 0l-3 1.731a.946.946 0 0 0-.473.819v3.462a.946.946 0 0 0 .473.819m1.3-3.5a.52.52 0 0 1 .26-.45l1.649-.952a.52.52 0 0 1 .52 0l1.649.952a.52.52 0 0 1 .26.45v1.9a.52.52 0 0 1-.26.451l-1.649.952a.52.52 0 0 1-.52 0l-1.649-.952a.521.521 0 0 1-.26-.451z" transform="translate(-200.992 -383.278)"/>
            <path id="Rectangle_11" data-name="Rectangle 11" class="cls-1" transform="translate(30.406 50.175)" d="M0 0h2.149v3.873H0z"/>
            <path id="Path_15" data-name="Path 15" class="cls-3" d="m389.848 70.327-.9-3.344a.946.946 0 0 0-.669-.669l-3.344-.9a.946.946 0 0 0-.914.245l-2.448 2.448a.946.946 0 0 0-.245.913l.9 3.344a.945.945 0 0 0 .669.669l3.344.9a.946.946 0 0 0 .914-.245l2.445-2.448a.946.946 0 0 0 .245-.914m-3.4 1.556a.52.52 0 0 1-.5.135l-1.839-.493a.52.52 0 0 1-.368-.368l-.493-1.839a.52.52 0 0 1 .135-.5l1.346-1.346a.52.52 0 0 1 .5-.135l1.839.493a.52.52 0 0 1 .368.368l.493 1.839a.52.52 0 0 1-.135.5z" transform="translate(-335.356 -57.507)"/>
            <path id="Rectangle_12" data-name="Rectangle 12" class="cls-1" transform="rotate(-45 42.154 -45.216)" d="M0 0h3.873v2.149H0z"/>
            <path id="Path_16" data-name="Path 16" class="cls-3" d="m74.955 64.245-3.344.9a.945.945 0 0 0-.669.669l-.9 3.344a.946.946 0 0 0 .245.914l2.448 2.448a.946.946 0 0 0 .913.245l3.344-.9a.945.945 0 0 0 .669-.669l.9-3.344a.946.946 0 0 0-.245-.914l-2.448-2.448a.946.946 0 0 0-.914-.245m1.556 3.4a.52.52 0 0 1 .135.5l-.493 1.839a.52.52 0 0 1-.368.368l-1.839.493a.52.52 0 0 1-.5-.135L72.1 69.363a.52.52 0 0 1-.135-.5l.493-1.839a.52.52 0 0 1 .368-.368l1.839-.493a.52.52 0 0 1 .5.135z" transform="translate(-61.577 -56.475)"/>
            <path id="Rectangle_13" data-name="Rectangle 13" class="cls-1" transform="rotate(-45 25.545 -9.761)" d="M0 0h2.149v3.873H0z"/>
            <path id="Path_17" data-name="Path 17" class="cls-3" d="m70.046 382.352.9 3.344a.945.945 0 0 0 .669.669l3.344.9a.946.946 0 0 0 .914-.245l2.448-2.448a.946.946 0 0 0 .245-.913l-.9-3.344a.945.945 0 0 0-.669-.669l-3.344-.9a.946.946 0 0 0-.914.245l-2.448 2.448a.946.946 0 0 0-.245.914m3.4-1.556a.52.52 0 0 1 .5-.135l1.839.493a.52.52 0 0 1 .368.368l.493 1.839a.52.52 0 0 1-.135.5l-1.346 1.346a.52.52 0 0 1-.5.135l-1.839-.493a.52.52 0 0 1-.368-.368l-.493-1.839a.52.52 0 0 1 .135-.5z" transform="translate(-61.577 -333.08)"/>
            <path id="Rectangle_14" data-name="Rectangle 14" class="cls-1" transform="rotate(-45 63.62 6.01)" d="M0 0h3.873v2.149H0z"/>
            <path id="Path_18" data-name="Path 18" class="cls-3" d="m384.939 388.433 3.344-.9a.946.946 0 0 0 .669-.669l.9-3.344a.946.946 0 0 0-.245-.914l-2.448-2.448a.946.946 0 0 0-.913-.245l-3.344.9a.945.945 0 0 0-.669.669l-.9 3.344a.946.946 0 0 0 .245.914l2.448 2.448a.946.946 0 0 0 .914.245m-1.556-3.4a.52.52 0 0 1-.135-.5l.493-1.839a.52.52 0 0 1 .368-.368l1.839-.493a.52.52 0 0 1 .5.135l1.346 1.346a.52.52 0 0 1 .135.5l-.493 1.839a.52.52 0 0 1-.368.368l-1.839.493a.52.52 0 0 1-.5-.135z" transform="translate(-335.356 -334.111)"/>
            <path id="Rectangle_15" data-name="Rectangle 15" class="cls-1" transform="rotate(-45 77.287 -30.663)" d="M0 0h2.149v3.873H0z"/>
            <path id="Path_19" data-name="Path 19" class="cls-1" d="m1.858 226.17-1.731 3a.945.945 0 0 0 0 .946l1.731 3a.946.946 0 0 0 .819.473h3.462a.946.946 0 0 0 .819-.473l1.731-3a.946.946 0 0 0 0-.946l-1.731-3a.946.946 0 0 0-.819-.473H2.677a.946.946 0 0 0-.819.473m3.5 1.3a.52.52 0 0 1 .45.26l.952 1.649a.52.52 0 0 1 0 .52l-.95 1.651a.52.52 0 0 1-.45.26h-1.9a.52.52 0 0 1-.451-.26l-.956-1.65a.52.52 0 0 1 0-.52l.952-1.649a.521.521 0 0 1 .451-.26z" transform="translate(-3.253 -198.502)"/>
            <path id="Path_20" data-name="Path 20" class="cls-1" d="m456.314 233.113 1.731-3a.945.945 0 0 0 0-.946l-1.731-3a.946.946 0 0 0-.819-.473h-3.462a.946.946 0 0 0-.819.473l-1.731 3a.946.946 0 0 0 0 .946l1.731 3a.946.946 0 0 0 .819.473h3.462a.946.946 0 0 0 .819-.473m-3.5-1.3a.52.52 0 0 1-.45-.26l-.952-1.649a.52.52 0 0 1 0-.52l.952-1.649a.52.52 0 0 1 .45-.26h1.9a.52.52 0 0 1 .45.26l.952 1.649a.52.52 0 0 1 0 .52l-.952 1.649a.521.521 0 0 1-.451.26z" transform="translate(-392.211 -198.502)"/>
            <path id="Path_12" data-name="Path 12" d="M159.791 140.962c-.452.045-1-.052-1.326.175-.291.2-.323.767-.491 1.162-.316.746-.606 1.509-.989 2.221a.705.705 0 0 0 .191 1.034c.311.259.583.564.869.852a3.6 3.6 0 0 1 .16 5.052 26.132 26.132 0 0 1-2.182 2.178 3.613 3.613 0 0 1-5.051-.184c-.42-.419-.8-1.048-1.3-1.165-.438-.1-1.007.388-1.527.6-.678.27-1.355.545-2.049.768-.367.118-.542.278-.515.682.031.458.008.92 0 1.38a3.575 3.575 0 0 1-3.461 3.673 28.6 28.6 0 0 1-3.084 0 3.57 3.57 0 0 1-3.441-3.614c-.011-.621.186-1.389-.109-1.819s-1.087-.485-1.65-.73a33.46 33.46 0 0 1-1.911-.89.509.509 0 0 0-.71.1c-.311.339-.663.64-.967.983a3.651 3.651 0 0 1-5.292.048c-.61-.614-1.238-1.211-1.837-1.836a3.638 3.638 0 0 1 .034-5.234c.417-.421 1.043-.808 1.156-1.306.1-.442-.387-1.011-.6-1.531-.272-.677-.553-1.353-.774-2.048a.6.6 0 0 0-.688-.507 15.211 15.211 0 0 1-1.864-.044 3.532 3.532 0 0 1-3.16-3.352c-.033-.946-.018-1.894-.031-2.84a3.646 3.646 0 0 1 3.821-3.749 3.2 3.2 0 0 0 1.658-.112c.366-.235.418-.948.63-1.441.288-.671.569-1.346.9-1.993.19-.367.214-.626-.127-.91-.311-.258-.558-.592-.865-.855a3.639 3.639 0 0 1-.164-5.231 38.029 38.029 0 0 1 2.006-2.01 3.64 3.64 0 0 1 5.178.133c.378.421.764 1.02 1.234 1.12.449.1 1.012-.36 1.529-.561.705-.274 1.408-.557 2.126-.8.336-.112.49-.269.472-.633-.024-.486-.009-.974 0-1.461a3.547 3.547 0 0 1 3.349-3.614 22.279 22.279 0 0 1 3.326.005 3.548 3.548 0 0 1 3.311 3.646c.005.487.015.975 0 1.461-.012.323.125.463.426.581 1.106.433 2.2.894 3.29 1.371a.488.488 0 0 0 .644-.1c.334-.354.7-.682 1.025-1.041a3.635 3.635 0 0 1 5.177-.091 49.853 49.853 0 0 1 1.951 1.951 3.639 3.639 0 0 1-.1 5.234c-.323.288-.6.623-.924.912a.567.567 0 0 0-.159.771q.716 1.587 1.345 3.213c.129.336.286.475.64.459.486-.022.974-.013 1.461 0a3.568 3.568 0 0 1 3.607 3.447 29.316 29.316 0 0 1 0 3.084 3.553 3.553 0 0 1-3.684 3.433c-.161-.012-.324 0-.487 0v-.02m-9.445-4.985a9.751 9.751 0 1 0-10.148 9.771 9.734 9.734 0 0 0 10.148-9.771" transform="translate(-109.122 -105.07)" style="fill:#333"/>
        </g>
    </g>
</svg>
