<svg id="Group_251" data-name="Group 251" xmlns="http://www.w3.org/2000/svg" width="50.961" height="51.004" viewBox="0 0 50.961 51.004">
    <defs>
        <clipPath id="clip-path">
            <path id="Rectangle_19" data-name="Rectangle 19" class="cls-1" d="M0 0h50.961v51.004H0z"/>
        </clipPath>
        <style>
            .cls-1{fill:#666}
        </style>
    </defs>
    <g id="Group_30" data-name="Group 30" style="clip-path:url(#clip-path)">
        <path id="Path_26" data-name="Path 26" class="cls-1" d="M.069 33.62 0 32.614a4.06 4.06 0 0 1 3.126-3.149 4.924 4.924 0 0 0 .736-.29 1.583 1.583 0 0 0 .875-1.969 7.627 7.627 0 0 1-.008-3.406 1.642 1.642 0 0 0-.9-2.19c-.587-.256-1.191-.478-1.768-.754A2.9 2.9 0 0 1 .23 17.993a7.855 7.855 0 0 1 2.115-5.232 2.861 2.861 0 0 1 3.3-.812c.676.234 1.345.492 2 .784a1.372 1.372 0 0 0 1.655-.32c1.106-1.085 2.2-2.181 3.3-3.273a1.641 1.641 0 0 0 .345-1.832 29.766 29.766 0 0 1-.694-1.708 2.753 2.753 0 0 1 .449-2.976 8.185 8.185 0 0 1 2.03-1.538 14.657 14.657 0 0 1 1.888-.827 3.616 3.616 0 0 1 3.8.688 4.418 4.418 0 0 1 1.151 2.011 6.936 6.936 0 0 0 .293.734 1.734 1.734 0 0 0 2.2.982 7.509 7.509 0 0 1 3.07.007c1.25.288 2-.063 2.381-1.014.211-.523.423-1.049.674-1.554A3.182 3.182 0 0 1 34.131.292 18.969 18.969 0 0 1 37.57 1.7a3.265 3.265 0 0 1 1.5 4.079c-.213.6-.453 1.2-.719 1.779a1.477 1.477 0 0 0 .669 1.964 10.521 10.521 0 0 1 2.64 2.643 1.521 1.521 0 0 0 2 .746 7.49 7.49 0 0 1 1.364-.536 7.069 7.069 0 0 1 2.209-.235 3.422 3.422 0 0 1 2.7 2.319 26.679 26.679 0 0 1 .92 2.87 3.13 3.13 0 0 1-.425 2.585 4.457 4.457 0 0 1-2.586 1.7 4.331 4.331 0 0 0-.522.217c-.849.362-1.146 1.075-.906 2.177a6.84 6.84 0 0 1 .012 3.08c-.3 1.245.021 1.978.929 2.361.521.22 1.046.43 1.564.658a3.106 3.106 0 0 1 1.949 2.928 7.125 7.125 0 0 1-1.624 4.6c-.7.974-.873.995-1.751.207-2.277-2.044-4.523-4.125-6.839-6.123a2.408 2.408 0 0 1-.865-2.8 12.837 12.837 0 0 0 .305-5.5 14.677 14.677 0 1 0-18.015 16.337 13.625 13.625 0 0 0 6.724.007 2.718 2.718 0 0 1 3.3 1.424 26.635 26.635 0 0 0 5 5.576 11.431 11.431 0 0 1 1.357 1.507 5.713 5.713 0 0 1-2.483 1.844q-.7.292-1.392.589a3.584 3.584 0 0 1-3.885-.651 4.388 4.388 0 0 1-1.141-2.007c-.062-.216-.171-.418-.249-.631a1.766 1.766 0 0 0-1.687-1.151c-1.453.022-2.906.02-4.359-.017a1.592 1.592 0 0 0-1.657 1.1c-.244.592-.468 1.194-.747 1.769a2.833 2.833 0 0 1-2.7 1.712 7.737 7.737 0 0 1-5.423-2.187A2.822 2.822 0 0 1 12 45.427a17.085 17.085 0 0 1 .738-1.772 1.6 1.6 0 0 0-.407-2.04 102.488 102.488 0 0 1-2.158-2.166C8.492 37.73 8.5 37.728 6.218 38.6a9.386 9.386 0 0 1-.747.255 3.144 3.144 0 0 1-3.6-1.2 10.792 10.792 0 0 1-.961-1.907C.6 35.051.345 34.331.069 33.62"/>
        <path id="Path_27" data-name="Path 27" d="M81.628 86.565a9.281 9.281 0 0 1 .942.7q1.3 1.261 2.564 2.562a3.075 3.075 0 0 0 3.355 1.046 3.768 3.768 0 0 0 2.593-3.029 2.733 2.733 0 0 0-.922-2.444c-.921-.948-1.867-1.872-2.788-2.82-.278-.286-.505-.621-.922-1.139.884-.205 1.554-.389 2.234-.516a7.376 7.376 0 0 1 8.864 6.925 12.55 12.55 0 0 1-.223 2.8 2.262 2.262 0 0 0 .756 2.319c3.534 3.128 7.028 6.3 10.561 9.433a6.583 6.583 0 0 0 1.709 1.075c2.014.88 2.792 2.091 2.62 4.234a5.969 5.969 0 0 1-6.352 5.167 3.2 3.2 0 0 1-2.717-1.955 13.18 13.18 0 0 0-2.642-3.777 837.591 837.591 0 0 1-8.021-8.936 2.519 2.519 0 0 0-2.785-.885 7.707 7.707 0 0 1-8.906-4.125 8.376 8.376 0 0 1 .081-6.639m26.143 23.064a1.943 1.943 0 0 0 1.984-1.878 2.238 2.238 0 0 0-2.156-2.172 1.969 1.969 0 0 0-1.9 1.977 2.072 2.072 0 0 0 2.075 2.073" transform="translate(-62.554 -62.462)" style="fill:#333"/>
    </g>
</svg>
