<?xml version="1.0" encoding="utf-8"?>
<!-- Generator: Adobe Illustrator 26.0.3, SVG Export Plug-In . SVG Version: 6.00 Build 0)  -->
<svg version="1.0" id="Layer_1" xmlns="http://www.w3.org/2000/svg" xmlns:xlink="http://www.w3.org/1999/xlink" x="0px" y="0px"
	 viewBox="0 0 163.56 44.57" style="enable-background:new 0 0 163.56 44.57;" xml:space="preserve">
<style type="text/css">
	.st0{enable-background:new    ;}
	.st1{fill:#010101;}
	.st2{fill:#666666;}
</style>
<g>
	<g class="st0">
		<path class="st1" d="M104.81,26.31c0-2.04-1.18-3.16-3-3.16c-1.82,0-3,1.12-3,3.16v8.48h-4.76v-8.48c0-2.04-1.18-3.16-3-3.16
			c-1.82,0-3,1.12-3,3.16v8.48h-4.79V19.17h4.79v1.96c0.92-1.26,2.52-2.13,4.56-2.13c2.35,0,4.26,1.04,5.32,2.91
			c1.04-1.65,3-2.91,5.26-2.91c3.86,0,6.36,2.46,6.36,6.66v9.13h-4.76V26.31z"/>
		<path class="st1" d="M119.28,35.02c-4.17,0-6.97-2.32-7.2-5.35h4.73c0.11,1.09,1.09,1.82,2.41,1.82c1.23,0,1.88-0.56,1.88-1.26
			c0-2.52-8.51-0.7-8.51-6.44c0-2.66,2.27-4.84,6.36-4.84c4.03,0,6.27,2.24,6.58,5.32h-4.42c-0.14-1.06-0.95-1.76-2.3-1.76
			c-1.12,0-1.74,0.45-1.74,1.2c0,2.49,8.46,0.73,8.54,6.55C125.61,32.98,123.2,35.02,119.28,35.02z"/>
		<path class="st1" d="M128.55,14.08h4.79V34.8h-4.79V14.08z"/>
		<path class="st1" d="M158.34,26.31c0-2.04-1.18-3.16-3-3.16c-1.82,0-3,1.12-3,3.16v8.48h-4.76v-8.48c0-2.04-1.18-3.16-3-3.16
			c-1.82,0-3,1.12-3,3.16v8.48h-4.79V19.17h4.79v1.96c0.92-1.26,2.52-2.13,4.56-2.13c2.35,0,4.26,1.04,5.32,2.91
			c1.04-1.65,3-2.91,5.26-2.91c3.86,0,6.36,2.46,6.36,6.66v9.13h-4.76V26.31z"/>
	</g>
	<path id="Path_1" class="st2" d="M53.56,10.2c4.81-0.89,9.43,2.29,10.32,7.1c0.1,0.53,0.15,1.07,0.15,1.61v16.58
		c0.05,4.89-3.87,8.9-8.77,8.95c-4.89,0.05-8.9-3.87-8.95-8.77c0-0.06,0-0.13,0-0.19V18.91C46.3,14.63,49.36,10.97,53.56,10.2"/>
	<path id="Path_2" d="M30.35,4.34c7.05-5.56,17.1-5.14,23.67,0.97C47.22,5.86,41.8,11.2,41.13,17.98c-0.03,0.31-0.03,0.62-0.02,0.93
		v16.58c0,0.3-0.02,0.61-0.05,0.91c-0.5,4.87-4.86,8.4-9.72,7.9c-4.52-0.47-7.95-4.27-7.95-8.81V18.67
		C23.38,13.08,25.95,7.79,30.35,4.34"/>
	<path id="Path_3" d="M18.69,0.13L18.69,0.13c2.44,0,4.86,0.49,7.11,1.44c-4.78,3.42-7.62,8.94-7.61,14.81v19.11
		c0,4.89-3.97,8.86-8.86,8.86s-8.86-3.97-8.86-8.86V18.35C0.46,8.29,8.62,0.13,18.69,0.13"/>
</g>
</svg>
