<svg xmlns="http://www.w3.org/2000/svg" width="28.125" height="25" viewBox="0 0 28.125 25">
    <path d="M7.813 21.875c-1.25 0-2.5-1.094-3.125-1.562C1.563 18.125.625 17.344 0 16.875v6.563A1.563 1.563 0 0 0 1.563 25h12.5a1.563 1.563 0 0 0 1.563-1.562v-6.563c-.625.469-1.562 1.25-4.687 3.438-.626.468-1.876 1.562-3.126 1.562zm6.25-9.375h-12.5A1.563 1.563 0 0 0 0 14.063v.781c1.25.938 1.094.938 5.625 4.219.469.313 1.406 1.25 2.188 1.25s1.718-.938 2.187-1.094c4.531-3.281 4.375-3.281 5.625-4.219v-.938a1.563 1.563 0 0 0-1.562-1.562zm12.5-4.687H10.938a1.563 1.563 0 0 0-1.563 1.562v1.563h4.688a3.13 3.13 0 0 1 3.111 2.823l.014-.011v6.563h9.375a1.563 1.563 0 0 0 1.563-1.562V9.375a1.563 1.563 0 0 0-1.563-1.562zM25 14.063h-3.125v-3.125H25zM7.813 9.375a3.129 3.129 0 0 1 3.125-3.125h10.937V1.563A1.563 1.563 0 0 0 20.313 0H4.688a1.563 1.563 0 0 0-1.563 1.563v9.375h4.688z"/>
</svg>
