<svg xmlns="http://www.w3.org/2000/svg" width="1920" height="6296" viewBox="0 0 1920 6296">
    <defs>
        <clipPath id="clip-path">
            <path id="Rectangle_30" data-name="Rectangle 30" transform="translate(0 123)" style="fill:#fff" d="M0 0h1920v6296H0z"/>
        </clipPath>
        <style>
            .cls-4{fill:#f2f2f2}
        </style>
    </defs>
    <g id="Mask_Group_4" data-name="Mask Group 4" transform="translate(0 -123)" style="clip-path:url(#clip-path)">
        <g id="Group_164" data-name="Group 164" transform="translate(122.002)" style="opacity:.5">
            <path id="Vector" class="cls-4" d="M3588 0c-107.662 276.567-409.4 317.068-578.058 289.726-226.464-36.216-460.552-195.2-673.1-62.532-167.618 104.663-278.314 368.193-435.162 510.762-190.971 173.171-425.318 146.191-640.272 81.908s-432.2-161.4-648.636-112.148c-155.7 35.431-300.817 144.863-450.744 222A799.387 799.387 0 0 1 0 994V0z" transform="rotate(90 899.5 1022.5)"/>
            <path id="Vector-2" data-name="Vector" d="M75.5 0A75.5 75.5 0 1 0 151 75.5 75.5 75.5 0 0 0 75.5 0zm0 110.84a35.34 35.34 0 1 1 24.989-10.351A35.34 35.34 0 0 1 75.5 110.84z" transform="rotate(-150 395.085 890.189)" style="fill:#e6e6e6"/>
            <path id="Vector-3" data-name="Vector" class="cls-4" d="M75.5 0A75.5 75.5 0 1 0 151 75.5 75.5 75.5 0 0 0 75.5 0zm0 110.84a35.34 35.34 0 1 1 24.989-10.351A35.34 35.34 0 0 1 75.5 110.84z" transform="rotate(-150 1935.212 4094.675)"/>
            <path id="Vector-4" data-name="Vector" class="cls-4" d="M39.786 0a39.786 39.786 0 1 0 39.785 39.786A39.785 39.785 0 0 0 39.786 0zm0 58.409a18.623 18.623 0 1 1 13.168-5.455 18.623 18.623 0 0 1-13.168 5.455z" transform="rotate(-150 1382.307 1761.24)"/>
            <path id="Vector-5" data-name="Vector" class="cls-4" d="M39.786 0a39.786 39.786 0 1 0 39.785 39.786A39.785 39.785 0 0 0 39.786 0zm0 58.409a18.623 18.623 0 1 1 13.168-5.455 18.623 18.623 0 0 1-13.168 5.455z" transform="rotate(-150 1697.595 3345.605)"/>
            <path id="Vector-6" data-name="Vector" class="cls-4" d="M61.882 0a61.882 61.882 0 1 0 61.882 61.882A61.881 61.881 0 0 0 61.882 0zm0 90.848a28.966 28.966 0 1 1 20.482-8.484 28.966 28.966 0 0 1-20.482 8.484z" transform="rotate(-150 1565.642 2727.157)"/>
            <path id="Vector-7" data-name="Vector" class="cls-4" d="M7585-1458H0v915.891a652.381 652.381 0 0 0 126.567 34.787c285.891 49.072 570.172-82.431 840.893-216.2s551.1-274.1 838.416-243.678c615.251 66.213 1076.008 887.238 1690.64 961.6 649.06 78.733 1220.842-699.607 1871.946-663.811 459.952 25.208 909.625 458.114 1349.02 271.49 273.073-115.957 461.81-443.745 645.654-741.368C7431.25-1249.278 7504.874-1360.277 7585-1458z" transform="rotate(-90 5593.999 4258.001)"/>
        </g>
    </g>
</svg>
