<svg xmlns="http://www.w3.org/2000/svg" width="16.018" height="16.019" viewBox="0 0 16.018 16.019">
    <path data-name="Path 1229" d="M12.931 10.4a1.686 1.686 0 1 0 3.372 0V6.186a1.686 1.686 0 1 0-3.372 0zM6.186 8.715a1.686 1.686 0 0 0 0 3.372H10.4a1.686 1.686 0 0 0 0-3.372zm8.431 4.215a1.686 1.686 0 1 0 0 3.372h4.215a1.686 1.686 0 1 0 0-3.372zM10.4 20.518a1.686 1.686 0 0 1-1.686-1.686v-4.215a1.686 1.686 0 0 1 3.372 0v4.215a1.686 1.686 0 0 1-1.686 1.686zM8.715 6.186a1.686 1.686 0 0 1 3.372 0v1.686H10.4a1.686 1.686 0 0 1-1.685-1.686zM4.5 14.617a1.686 1.686 0 0 0 3.372 0v-1.686H6.186A1.686 1.686 0 0 0 4.5 14.617zm11.8 4.215a1.686 1.686 0 1 1-3.372 0v-1.686h1.686a1.686 1.686 0 0 1 1.686 1.686zm4.218-8.432a1.686 1.686 0 1 0-3.372 0v1.686h1.686a1.686 1.686 0 0 0 1.686-1.686z" transform="translate(-4.5 -4.5)" style="fill:#f2f2f2;fill-rule:evenodd"/>
</svg>
