<svg xmlns="http://www.w3.org/2000/svg" width="28.125" height="21.875" viewBox="0 0 28.125 21.875">
    <path d="M25.781 0H2.344A2.344 2.344 0 0 0 0 2.344v17.187a2.344 2.344 0 0 0 2.344 2.344h23.437a2.344 2.344 0 0 0 2.344-2.344V2.344A2.344 2.344 0 0 0 25.781 0zM8.594 4.688a3.125 3.125 0 1 1-3.125 3.125 3.128 3.128 0 0 1 3.125-3.125zm5.469 11.562a1.024 1.024 0 0 1-1.094.938h-8.75a1.024 1.024 0 0 1-1.094-.937v-.937A3.075 3.075 0 0 1 6.406 12.5h.244a5.029 5.029 0 0 0 3.887 0h.244a3.075 3.075 0 0 1 3.281 2.813zM25 13.672a.392.392 0 0 1-.391.391h-7.031a.392.392 0 0 1-.391-.391v-.781a.392.392 0 0 1 .391-.391h7.031a.392.392 0 0 1 .391.391zm0-3.125a.392.392 0 0 1-.391.391h-7.031a.392.392 0 0 1-.391-.391v-.781a.392.392 0 0 1 .391-.391h7.031a.392.392 0 0 1 .391.391zm0-3.125a.392.392 0 0 1-.391.391h-7.031a.392.392 0 0 1-.391-.391v-.781a.392.392 0 0 1 .391-.391h7.031a.392.392 0 0 1 .391.391z"/>
</svg>
