<svg xmlns="http://www.w3.org/2000/svg" width="62.5" height="57.74" viewBox="0 0 62.5 57.74">
    <defs>
        <style>
            .cls-1{fill:#666}.cls-2{fill:#333}
        </style>
    </defs>
    <g id="web-development-svgrepo-com" transform="translate(0 -15.992)">
        <g id="Group_29" data-name="Group 29" transform="translate(0 15.992)">
            <g id="Group_28" data-name="Group 28">
                <path id="Path_21" data-name="Path 21" class="cls-1" d="M42.1 66.056a2.774 2.774 0 0 1-.83-.781 2.823 2.823 0 0 1-.264-.465H4.209V28.536h49.953v23.686a2.785 2.785 0 0 1 2.338 1.756 2.773 2.773 0 0 1 1.872-.286V19.5a3.512 3.512 0 0 0-3.507-3.508H3.508A3.512 3.512 0 0 0 0 19.5v46.012a3.512 3.512 0 0 0 3.508 3.508h38.277a2.777 2.777 0 0 1 .32-2.963zm8.21-44.174a1.3 1.3 0 0 1 1.3-1.3h1.3a1.3 1.3 0 0 1 1.3 1.3v1.468a1.3 1.3 0 0 1-1.3 1.3h-1.3a1.3 1.3 0 0 1-1.3-1.3zm-6.023 0a1.3 1.3 0 0 1 1.3-1.3h1.3a1.3 1.3 0 0 1 1.3 1.3v1.468a1.3 1.3 0 0 1-1.3 1.3h-1.3a1.3 1.3 0 0 1-1.3-1.3zm-6.023 0a1.3 1.3 0 0 1 1.3-1.3h1.3a1.3 1.3 0 0 1 1.3 1.3v1.468a1.3 1.3 0 0 1-1.3 1.3h-1.3a1.3 1.3 0 0 1-1.3-1.3z" transform="translate(0 -15.992)"/>
                <path id="Path_22" data-name="Path 22" class="cls-2" d="m308 283.471-.389-2.207a.547.547 0 0 0-.633-.443l-1.963.346a7.364 7.364 0 0 0-.894-1.545l1.282-1.528a.546.546 0 0 0-.068-.77l-1.717-1.441a.547.547 0 0 0-.77.067l-1.281 1.527a7.339 7.339 0 0 0-1.677-.611v-1.993a.547.547 0 0 0-.547-.547H297.1a.547.547 0 0 0-.547.547v1.993a7.329 7.329 0 0 0-1.678.611l-1.281-1.527a.547.547 0 0 0-.77-.067l-1.717 1.441a.547.547 0 0 0-.067.77l1.282 1.528a7.39 7.39 0 0 0-.894 1.545l-1.963-.346a.547.547 0 0 0-.633.443l-.389 2.207a.546.546 0 0 0 .443.633l1.964.346a7.363 7.363 0 0 0 .309 1.758l-1.727 1a.546.546 0 0 0-.2.747l1.121 1.941a.547.547 0 0 0 .747.2l1.728-1a7.365 7.365 0 0 0 1.366 1.147l-.682 1.874a.547.547 0 0 0 .327.7l2.106.766a.546.546 0 0 0 .7-.327l.682-1.874a7.415 7.415 0 0 0 .892.054 7.492 7.492 0 0 0 .892-.054l.682 1.874a.546.546 0 0 0 .514.36.54.54 0 0 0 .187-.033l2.106-.766a.547.547 0 0 0 .326-.7l-.682-1.874a7.409 7.409 0 0 0 1.366-1.147l1.728 1a.549.549 0 0 0 .273.073.558.558 0 0 0 .142-.019.547.547 0 0 0 .332-.255l1.121-1.941a.546.546 0 0 0-.2-.747l-1.726-1a7.363 7.363 0 0 0 .308-1.758l1.964-.346a.545.545 0 0 0 .353-.225.536.536 0 0 0 .095-.407zm-9.777 3.507a3.007 3.007 0 1 1 3.007-3.007 3.007 3.007 0 0 1-3.009 3.008z" transform="translate(-245.506 -235.877)"/>
                <g id="Group_27" data-name="Group 27" transform="translate(11.474 16.817)">
                    <path id="Path_23" data-name="Path 23" class="cls-1" d="M90.132 174.539a1.831 1.831 0 0 0-1.056-1.655l-5.876-2.729 5.872-2.729a1.831 1.831 0 0 0 1.056-1.655v-.047a1.822 1.822 0 0 0-1.826-1.823 1.835 1.835 0 0 0-.768.169l-9.388 4.366a1.831 1.831 0 0 0-1.056 1.655v.131a1.834 1.834 0 0 0 1.056 1.655l9.389 4.366a1.825 1.825 0 0 0 2.593-1.655v-.048z" transform="translate(-77.094 -158.704)"/>
                    <path id="Path_24" data-name="Path 24" class="cls-2" d="M172.433 129.731a1.831 1.831 0 0 0-1.474-.749h-.047a1.819 1.819 0 0 0-1.738 1.267l-6.186 19.166a1.825 1.825 0 0 0 1.739 2.38h.047a1.818 1.818 0 0 0 1.737-1.267l6.185-19.164a1.829 1.829 0 0 0-.263-1.633z" transform="translate(-150.132 -128.982)"/>
                    <path id="Path_25" data-name="Path 25" class="cls-1" d="m239.476 168.436-9.388-4.366a1.825 1.825 0 0 0-2.594 1.655v.048a1.834 1.834 0 0 0 1.056 1.655l5.872 2.728-5.872 2.728a1.831 1.831 0 0 0-1.056 1.655v.048a1.826 1.826 0 0 0 2.595 1.655l9.389-4.366a1.832 1.832 0 0 0 1.055-1.654v-.131a1.833 1.833 0 0 0-1.057-1.655z" transform="translate(-205.109 -158.705)"/>
                </g>
            </g>
        </g>
    </g>
</svg>
