<svg xmlns="http://www.w3.org/2000/svg" width="16.018" height="16.144" viewBox="0 0 16.018 16.144">
    <path d="M10.272 9.47a4.761 4.761 0 0 1 1.017.459 4.518 4.518 0 0 1 .933.552.442.442 0 0 1 .021.156 2.2 2.2 0 0 1-.178.793 1.4 1.4 0 0 1-.74.683 2.466 2.466 0 0 1-1.064.277 5.634 5.634 0 0 1-1.981-.647 5.946 5.946 0 0 1-1.773-1.231 13.753 13.753 0 0 1-1.543-1.93 3.647 3.647 0 0 1-.74-2.023v-.082A2.306 2.306 0 0 1 5 4.829a.789.789 0 0 1 .538-.229 1.648 1.648 0 0 1 .188.016 1.677 1.677 0 0 0 .2.016.429.429 0 0 1 .274.068.752.752 0 0 1 .162.287q.083.209.344.918a6.2 6.2 0 0 1 .261.782 1.06 1.06 0 0 1-.36.6q-.36.381-.36.484a.3.3 0 0 0 .052.156 4.7 4.7 0 0 0 1.063 1.428 6.656 6.656 0 0 0 1.575 1.053.462.462 0 0 0 .229.073q.156 0 .563-.506t.542-.506zM8.155 15a6.375 6.375 0 0 0 2.54-.521 6.45 6.45 0 0 0 3.488-3.488 6.445 6.445 0 0 0 0-5.079 6.45 6.45 0 0 0-3.488-3.492 6.445 6.445 0 0 0-5.079 0 6.45 6.45 0 0 0-3.489 3.489 6.485 6.485 0 0 0 .73 6.377l-.824 2.43 2.524-.8A6.412 6.412 0 0 0 8.155 15zm0-14.412a7.641 7.641 0 0 1 3.05.626A7.773 7.773 0 0 1 15.393 5.4a7.748 7.748 0 0 1 0 6.1 7.773 7.773 0 0 1-4.187 4.187 7.637 7.637 0 0 1-3.05.626 7.743 7.743 0 0 1-3.807-.98L0 16.729l1.418-4.223a7.818 7.818 0 0 1-.5-7.106A7.773 7.773 0 0 1 5.1 1.211 7.628 7.628 0 0 1 8.155.585z" transform="translate(0 -.585)" style="fill:#f2f2f2"/>
</svg>
